<?xml version="1.0" standalone="no"?>
<!DOCTYPE svg PUBLIC "-//W3C//DTD SVG 20010904//EN"
 "http://www.w3.org/TR/2001/REC-SVG-20010904/DTD/svg10.dtd">
<svg version="1.0" xmlns="http://www.w3.org/2000/svg"
 width="250.000000pt" height="250.000000pt" viewBox="0 0 250.000000 250.000000"
 preserveAspectRatio="xMidYMid meet">

<g transform="translate(0.000000,250.000000) scale(0.100000,-0.100000)"
fill="#000000" stroke="none">
<path d="M1247 2316 c-21 -8 -46 -21 -56 -30 -15 -13 -23 -14 -50 -5 -67 24
-158 -14 -177 -73 -3 -10 -11 -18 -17 -18 -37 0 -119 -52 -149 -94 -24 -34
-38 -46 -57 -46 -31 0 -121 -41 -139 -63 -7 -9 -26 -19 -42 -22 -45 -10 -106
-59 -135 -110 -30 -51 -44 -136 -47 -285 -1 -103 14 -152 64 -196 28 -26 81
-54 103 -54 18 0 17 8 6 -215 -5 -93 -13 -240 -17 -325 -3 -85 -9 -206 -13
-269 l-6 -115 -33 -8 c-71 -19 -94 -126 -37 -175 l26 -23 742 0 c813 0 771 -3
797 59 26 63 -17 141 -76 141 -22 0 -24 4 -24 48 0 26 -3 106 -7 177 l-6 130
75 22 c61 18 85 31 122 68 69 67 91 125 115 300 25 178 25 197 6 261 -19 64
-74 128 -139 161 -42 22 -65 27 -133 27 -95 1 -89 -7 -92 121 -3 141 -21 186
-101 258 -27 25 -50 51 -50 59 0 8 -11 36 -25 64 -29 58 -81 95 -143 102 -38
4 -45 9 -63 43 -38 76 -141 115 -222 85z m123 -73 c30 -21 42 -37 56 -83 12
-37 7 -36 113 -39 12 -1 38 -16 57 -35 27 -27 34 -42 34 -74 0 -36 5 -43 52
-78 28 -21 53 -45 56 -51 3 -10 -118 -13 -546 -15 -534 -3 -551 -4 -572 -23
-34 -30 -37 -48 -45 -225 -6 -162 -12 -230 -19 -238 -9 -9 -66 30 -87 59 -29
41 -34 102 -21 242 9 93 15 115 38 149 25 36 87 78 115 78 6 0 28 13 48 28 41
33 91 52 132 52 21 0 34 10 56 42 36 54 67 76 128 91 43 10 50 16 57 44 9 34
41 63 69 63 10 0 31 -11 47 -25 37 -31 47 -31 68 0 34 53 116 71 164 38z m399
-448 c14 -14 19 -67 26 -260 3 -93 8 -190 10 -215 2 -25 7 -117 10 -205 3 -88
8 -187 10 -220 2 -33 7 -123 10 -200 3 -77 8 -177 11 -222 l6 -83 -636 0
c-502 0 -636 3 -636 13 0 6 4 98 10 202 12 252 19 374 26 525 3 69 11 244 18
389 11 218 15 266 28 275 21 15 1092 16 1107 1z m303 -310 c47 -34 76 -77 89
-134 10 -47 -32 -354 -54 -398 -36 -68 -128 -132 -189 -133 l-28 0 -1 78 c0
42 -2 84 -3 92 -2 8 -6 94 -10 190 -3 96 -9 207 -12 246 -8 88 1 96 98 91 55
-2 75 -8 110 -32z m-136 -1163 c20 -14 23 -40 5 -56 -16 -14 -92 -16 -727 -16
-390 0 -714 4 -720 8 -19 13 -23 41 -8 57 14 13 102 15 727 15 392 0 717 -4
723 -8z"/>
<path d="M737 1723 c-15 -14 -7 -53 11 -54 90 -5 638 -2 653 3 14 5 19 15 17
30 l-3 23 -336 3 c-184 1 -338 -1 -342 -5z"/>
<path d="M1504 1715 c-10 -24 3 -45 28 -46 149 -6 171 -2 166 33 -3 22 -8 23
-96 26 -76 2 -93 0 -98 -13z"/>
<path d="M659 578 c-6 -89 7 -122 39 -102 13 8 17 25 17 65 0 51 -1 54 -27 57
-23 3 -28 -1 -29 -20z"/>
<path d="M834 586 c-11 -28 1 -99 18 -110 23 -14 37 1 43 45 7 53 -3 79 -31
79 -14 0 -27 -6 -30 -14z"/>
<path d="M1014 587 c-3 -8 -4 -36 -2 -63 3 -45 5 -49 28 -49 24 0 25 3 25 60
0 55 -2 60 -23 63 -12 2 -24 -3 -28 -11z"/>
<path d="M1186 584 c-12 -31 -6 -91 10 -105 35 -29 66 32 50 97 -7 28 -50 34
-60 8z"/>
<path d="M1364 587 c-3 -8 -4 -36 -2 -63 3 -45 5 -49 28 -49 24 0 25 3 25 60
0 55 -2 60 -23 63 -12 2 -24 -3 -28 -11z"/>
<path d="M1534 566 c-12 -68 16 -115 52 -86 11 10 14 28 12 64 -3 47 -5 51
-30 54 -24 3 -28 -1 -34 -32z"/>
<path d="M1717 593 c-10 -9 -8 -96 2 -111 5 -8 17 -12 27 -10 16 3 20 14 22
66 3 59 2 62 -21 62 -13 0 -27 -3 -30 -7z"/>
</g>
</svg>
