<?xml version="1.0" standalone="no"?>
<!DOCTYPE svg PUBLIC "-//W3C//DTD SVG 20010904//EN"
 "http://www.w3.org/TR/2001/REC-SVG-20010904/DTD/svg10.dtd">
<svg version="1.0" xmlns="http://www.w3.org/2000/svg"
 width="650.000000pt" height="650.000000pt" viewBox="0 0 650.000000 650.000000"
 preserveAspectRatio="xMidYMid meet">

<g transform="translate(0.000000,650.000000) scale(0.100000,-0.100000)"
fill="#000000" stroke="none">
<path d="M744 4965 c-33 -7 -98 -25 -143 -39 -45 -14 -89 -26 -97 -26 -7 0
-14 -4 -14 -10 0 -5 -6 -10 -13 -10 -26 0 -116 -52 -132 -76 -19 -29 -23 -128
-5 -149 21 -25 75 -43 160 -55 97 -12 173 -35 195 -57 13 -13 11 -19 -16 -53
-36 -45 -138 -95 -225 -112 -33 -6 -65 -12 -72 -14 -18 -5 -14 -89 6 -128 14
-29 14 -29 84 -23 125 11 286 106 335 200 24 46 21 117 -6 161 -13 20 -26 36
-31 36 -4 0 -10 13 -13 30 -7 30 -59 71 -119 92 -81 28 54 66 222 62 118 -3
160 6 160 34 0 24 -60 121 -82 133 -30 16 -126 18 -194 4z"/>
<path d="M1905 4830 c-10 -11 -20 -39 -22 -63 -5 -56 -21 -177 -28 -204 -3
-15 -19 -26 -52 -36 -83 -26 -146 -38 -153 -30 -4 4 -1 51 7 103 l15 95 -45
67 -45 66 -20 -21 c-22 -24 -38 -80 -47 -167 -8 -86 -21 -139 -68 -290 -15
-50 -7 -93 25 -124 40 -39 108 -14 139 51 19 38 31 50 83 74 34 16 72 30 85
31 24 3 25 0 22 -44 -5 -89 44 -137 108 -104 40 21 54 50 47 92 -5 23 -1 45
12 71 41 82 70 311 41 328 -6 4 -22 32 -37 63 -15 30 -32 57 -38 59 -6 2 -19
-6 -29 -17z"/>
<path d="M1306 4832 c-10 -2 -33 -12 -50 -21 -17 -10 -71 -39 -119 -65 -95
-52 -176 -126 -209 -190 -16 -30 -19 -51 -15 -88 12 -100 34 -143 101 -196 41
-32 139 -54 239 -53 69 0 83 3 113 26 41 31 42 46 7 84 -27 28 -32 29 -138 34
-60 3 -128 11 -150 19 -34 11 -40 18 -43 45 -3 27 5 41 42 81 25 26 58 55 73
63 15 8 43 24 61 36 18 12 62 31 97 43 68 23 105 56 105 95 0 34 -79 95 -114
87z"/>
<path d="M2339 4788 c-30 -35 -55 -52 -79 -57 -33 -6 -36 -12 -128 -205 -51
-109 -94 -211 -94 -227 -1 -36 31 -83 59 -87 27 -4 78 40 80 68 2 29 52 130
64 130 5 0 9 -8 9 -19 0 -33 26 -44 88 -37 110 12 107 13 107 -9 0 -12 -11
-25 -27 -33 -29 -14 -35 -26 -17 -37 5 -4 14 -18 19 -31 21 -54 109 -35 151
33 17 27 20 44 15 81 -6 45 -4 48 29 75 19 15 35 34 35 41 0 17 -66 57 -88 54
-13 -2 -21 13 -35 67 -9 39 -20 93 -23 120 -10 79 -17 89 -71 106 l-50 16 -44
-49z m59 -294 c-4 -3 -34 -8 -68 -11 l-62 -6 27 44 c15 24 39 57 54 72 l26 29
14 -61 c8 -34 12 -64 9 -67z"/>
<path d="M2810 4837 c0 -1 -25 -74 -56 -162 -82 -235 -97 -292 -90 -336 7 -45
41 -106 66 -119 28 -15 109 -12 165 6 32 10 87 16 151 15 123 0 139 8 129 63
-4 21 -15 40 -24 43 -9 3 -36 15 -60 25 -37 17 -56 19 -125 13 -44 -4 -85 -9
-89 -12 -5 -3 -19 -6 -33 -8 -20 -2 -24 2 -24 26 0 28 7 49 90 263 40 103 41
111 27 135 -9 15 -32 30 -58 38 -42 12 -69 16 -69 10z"/>
<path d="M3687 4833 c-4 -3 -7 -17 -7 -30 0 -13 -4 -31 -9 -41 -5 -9 -15 -44
-21 -77 -23 -115 -83 -195 -182 -245 -69 -34 -93 -37 -102 -14 -10 25 -7 115
5 157 12 45 -4 96 -48 153 -29 38 -31 39 -57 19 -45 -34 -69 -353 -30 -396 9
-11 12 -19 6 -19 -14 0 36 -88 56 -99 10 -5 40 -12 67 -15 46 -7 58 -3 133 34
54 27 92 54 110 77 15 20 43 53 63 72 45 45 95 139 110 210 10 46 9 63 -7 115
-23 80 -62 124 -87 99z"/>
<path d="M3961 4808 c-8 -18 -57 -120 -108 -227 -51 -106 -93 -203 -93 -215 0
-28 42 -117 64 -135 30 -25 69 -3 86 50 9 25 23 57 33 72 9 14 17 31 17 37 0
22 21 8 39 -27 30 -59 102 -124 139 -125 37 -1 78 30 119 92 36 54 56 118 72
225 7 44 22 99 33 123 12 26 18 52 14 67 -6 24 -88 95 -110 95 -15 0 -43 -83
-61 -180 -25 -138 -73 -230 -119 -230 -11 0 -6 178 5 207 19 50 20 95 3 120
-13 21 -98 83 -114 83 -3 0 -12 -15 -19 -32z"/>
<path d="M4548 4823 c-17 -20 -68 -124 -68 -140 0 -6 -14 -43 -31 -84 -16 -41
-41 -114 -53 -162 -22 -83 -22 -92 -8 -140 16 -56 26 -73 53 -88 23 -12 68 25
120 102 21 32 49 65 60 73 21 14 25 12 73 -29 65 -58 158 -95 234 -95 59 1 86
14 110 55 10 18 11 18 12 2 0 -35 31 -79 65 -93 40 -17 109 -18 225 -4 108 13
164 34 190 70 l21 29 -36 35 c-35 35 -36 36 -83 25 -87 -19 -223 -31 -241 -20
-8 5 -5 20 12 52 l24 44 84 1 c70 0 92 4 129 25 50 28 73 59 50 67 -8 3 -26
17 -41 31 -24 24 -31 26 -102 23 -72 -3 -77 -2 -77 17 0 21 3 22 145 58 33 8
77 19 99 25 47 12 87 49 80 74 -8 28 -51 56 -88 56 -91 0 -345 -56 -391 -86
-19 -13 -22 -20 -15 -53 3 -21 12 -54 20 -73 12 -34 10 -40 -34 -127 -25 -49
-46 -98 -46 -108 0 -17 -1 -17 -20 0 -16 15 -39 19 -98 20 -84 2 -142 22 -167
59 -8 11 -15 23 -15 27 0 9 98 82 187 141 94 61 103 87 47 135 -30 26 -44 33
-64 28 -13 -4 -27 -10 -30 -13 -3 -4 -18 -14 -35 -22 -16 -8 -72 -47 -125 -87
-52 -40 -97 -68 -98 -62 -2 5 10 37 28 70 36 70 34 97 -8 128 -43 30 -75 35
-94 14z"/>
<path d="M5761 4808 c-8 -18 -57 -120 -108 -226 -51 -107 -93 -204 -93 -215 0
-29 42 -118 64 -136 30 -25 69 -3 86 50 9 25 23 57 33 72 9 14 17 31 17 37 0
22 21 8 39 -27 30 -59 102 -124 139 -125 37 -1 78 30 119 92 36 54 56 118 72
225 7 44 22 99 33 123 12 26 18 52 14 67 -6 24 -88 95 -110 95 -15 0 -43 -83
-61 -180 -25 -138 -73 -230 -119 -230 -11 0 -6 178 5 207 19 50 20 95 3 120
-13 21 -98 83 -114 83 -3 0 -12 -15 -19 -32z"/>
<path d="M3247 3126 c-21 -8 -46 -21 -56 -30 -15 -13 -23 -14 -50 -5 -67 24
-158 -14 -177 -73 -3 -10 -11 -18 -17 -18 -37 0 -119 -52 -149 -94 -24 -34
-38 -46 -57 -46 -31 0 -121 -41 -139 -63 -7 -9 -26 -19 -42 -22 -45 -10 -106
-59 -135 -110 -30 -51 -44 -136 -47 -285 -1 -103 14 -152 64 -196 28 -26 81
-54 103 -54 18 0 17 8 6 -215 -5 -93 -13 -240 -17 -325 -3 -85 -9 -206 -13
-269 l-6 -115 -33 -8 c-71 -19 -94 -126 -37 -175 l26 -23 742 0 c813 0 771 -3
797 59 26 63 -17 141 -76 141 -22 0 -24 4 -24 48 0 26 -3 106 -7 177 l-6 130
75 22 c61 18 85 31 122 68 69 67 91 125 115 300 25 178 25 197 6 261 -19 64
-74 128 -139 161 -42 22 -65 27 -133 27 -95 1 -89 -7 -92 121 -3 141 -21 186
-101 258 -27 25 -50 51 -50 59 0 8 -11 36 -25 64 -29 58 -81 95 -143 102 -38
4 -45 9 -63 43 -38 76 -141 115 -222 85z m123 -73 c30 -21 42 -37 56 -83 12
-37 7 -36 113 -39 12 -1 38 -16 57 -35 27 -27 34 -42 34 -74 0 -36 5 -43 52
-78 28 -21 53 -45 56 -51 3 -10 -118 -13 -546 -15 -534 -3 -551 -4 -572 -23
-34 -30 -37 -48 -45 -225 -6 -162 -12 -230 -19 -238 -9 -9 -66 30 -87 59 -29
41 -34 102 -21 242 9 93 15 115 38 149 25 36 87 78 115 78 6 0 28 13 48 28 41
33 91 52 132 52 21 0 34 10 56 42 36 54 67 76 128 91 43 10 50 16 57 44 9 34
41 63 69 63 10 0 31 -11 47 -25 37 -31 47 -31 68 0 34 53 116 71 164 38z m399
-448 c14 -14 19 -67 26 -260 3 -93 8 -190 10 -215 2 -25 7 -117 10 -205 3 -88
8 -187 10 -220 2 -33 7 -123 10 -200 3 -77 8 -177 11 -222 l6 -83 -636 0
c-502 0 -636 3 -636 13 0 6 4 98 10 202 12 252 19 374 26 525 3 69 11 244 18
389 11 218 15 266 28 275 21 15 1092 16 1107 1z m303 -310 c47 -34 76 -77 89
-134 10 -47 -32 -354 -54 -398 -36 -68 -128 -132 -189 -133 l-28 0 -1 78 c0
42 -2 84 -3 92 -2 8 -6 94 -10 190 -3 96 -9 207 -12 246 -8 88 1 96 98 91 55
-2 75 -8 110 -32z m-136 -1163 c20 -14 23 -40 5 -56 -16 -14 -92 -16 -727 -16
-390 0 -714 4 -720 8 -19 13 -23 41 -8 57 14 13 102 15 727 15 392 0 717 -4
723 -8z"/>
<path d="M2737 2533 c-15 -14 -7 -53 11 -54 90 -5 638 -2 653 3 14 5 19 15 17
30 l-3 23 -336 3 c-184 1 -338 -1 -342 -5z"/>
<path d="M3504 2525 c-10 -24 3 -45 28 -46 149 -6 171 -2 166 33 -3 22 -8 23
-96 26 -76 2 -93 0 -98 -13z"/>
<path d="M2659 1388 c-6 -89 7 -122 39 -102 13 8 17 25 17 65 0 51 -1 54 -27
57 -23 3 -28 -1 -29 -20z"/>
<path d="M2834 1396 c-11 -28 1 -99 18 -110 23 -14 37 1 43 45 7 53 -3 79 -31
79 -14 0 -27 -6 -30 -14z"/>
<path d="M3014 1397 c-3 -8 -4 -36 -2 -63 3 -45 5 -49 28 -49 24 0 25 3 25 60
0 55 -2 60 -23 63 -12 2 -24 -3 -28 -11z"/>
<path d="M3186 1394 c-12 -31 -6 -91 10 -105 35 -29 66 32 50 97 -7 28 -50 34
-60 8z"/>
<path d="M3364 1397 c-3 -8 -4 -36 -2 -63 3 -45 5 -49 28 -49 24 0 25 3 25 60
0 55 -2 60 -23 63 -12 2 -24 -3 -28 -11z"/>
<path d="M3534 1376 c-12 -68 16 -115 52 -86 11 10 14 28 12 64 -3 47 -5 51
-30 54 -24 3 -28 -1 -34 -32z"/>
<path d="M3717 1403 c-10 -9 -8 -96 2 -111 5 -8 17 -12 27 -10 16 3 20 14 22
66 3 59 2 62 -21 62 -13 0 -27 -3 -30 -7z"/>
</g>
</svg>
